<?xml version="1.0" ?><svg viewBox="0 0 64 64" xmlns="http://www.w3.org/2000/svg"><defs><style>.cls-1{fill:#a2d0ff;}.cls-2{fill:#2e58ff;}.cls-3{fill:#8bc4ff;}</style></defs><title/><g id="Square"><path class="cls-1" d="M6,2H22a0,0,0,0,1,0,0V28a0,0,0,0,1,0,0H2a0,0,0,0,1,0,0V6A4,4,0,0,1,6,2Z"/><path class="cls-2" d="M22,30H2a2,2,0,0,1-2-2V6A6,6,0,0,1,6,0H22a2,2,0,0,1,2,2V28A2,2,0,0,1,22,30ZM4,26H20V4H6A2,2,0,0,0,4,6Z"/><path class="cls-3" d="M30,2H58a4,4,0,0,1,4,4V28a0,0,0,0,1,0,0H30a0,0,0,0,1,0,0V2A0,0,0,0,1,30,2Z"/><path class="cls-2" d="M62,30H30a2,2,0,0,1-2-2V2a2,2,0,0,1,2-2H58a6,6,0,0,1,6,6V28A2,2,0,0,1,62,30ZM32,26H60V6a2,2,0,0,0-2-2H32Z"/><path class="cls-1" d="M46,36H62a0,0,0,0,1,0,0V62a0,0,0,0,1,0,0H42a0,0,0,0,1,0,0V40A4,4,0,0,1,46,36Z" transform="translate(104 98) rotate(-180)"/><path class="cls-2" d="M58,64H42a2,2,0,0,1-2-2V36a2,2,0,0,1,2-2H62a2,2,0,0,1,2,2V58A6,6,0,0,1,58,64ZM44,60H58a2,2,0,0,0,2-2V38H44Z"/><path class="cls-3" d="M2,36H30a4,4,0,0,1,4,4V62a0,0,0,0,1,0,0H2a0,0,0,0,1,0,0V36a0,0,0,0,1,0,0Z" transform="translate(36 98) rotate(-180)"/><path class="cls-2" d="M34,64H6a6,6,0,0,1-6-6V36a2,2,0,0,1,2-2H34a2,2,0,0,1,2,2V62A2,2,0,0,1,34,64ZM4,38V58a2,2,0,0,0,2,2H32V38Z"/></g></svg>